# xmcd
#
# Track frame offsets: 
#        150
#        13311
#        26215
#        36679
#        48292
#        58588
#        70862
#        82916
#        96746
#        107081
#        119165
#        133419
#        146421
#        160987
#        173624
#        184556
#
# Disc length: 2633 seconds
#
# Revision: 3
# Processed by: cddbd v1.5.2PL0 Copyright (c) Steve Scherf et al.
# Submitted via: ExactAudioCopy v0.95b3
#
DISCID=ee0a4710
DTITLE=Various Artist - the fabulous fifties cd2
DYEAR=1995
DGENRE=Oldies
TTITLE0=nat king cole - smile
TTITLE1=les paul and mary ford - vaya con dios
TTITLE2=four freshman - charmaine
TTITLE3=les baxter - unchained melody
TTITLE4=michael holiday - the story of my life
TTITLE5=eartha kitt - under the bridge of paris
TTITLE6=vic damone - on the street where you live
TTITLE7=kingston trio - tom dooley
TTITLE8=jimmie rodgers - honeycomb
TTITLE9=cathy carr - ivory tower
TTITLE10=dean martin - that's amore
TTITLE11=the browns - the three bells
TTITLE12=jo stafford - you belong to me
TTITLE13=al martino - spanish eyes
TTITLE14=kay starr - comes a-long a-love
TTITLE15=peggy lee - alright okay you win
EXTD=
EXTT0=
EXTT1=
EXTT2=
EXTT3=
EXTT4=
EXTT5=
EXTT6=
EXTT7=
EXTT8=
EXTT9=
EXTT10=
EXTT11=
EXTT12=
EXTT13=
EXTT14=
EXTT15=
PLAYORDER=
